<svg xmlns="http://www.w3.org/2000/svg" viewBox="0 0 512 512" style="height: 240px; width: 240px;"><circle cx="256" cy="256" r="256" fill="#ff8594" fill-opacity="1"></circle><g class="" transform="translate(7,-41)" style=""><path d="M255 45.4c-24.5 0-47 11.8-63.9 33.4-16.9 21.5-27.1 52.6-27.1 86.5 0 36 12.1 67.5 31 89.5l13.5 15-19.6 4.6c-52.3 11.9-77.4 36.9-91.75 75.2-13.7 35.7-15.6 84.8-16.1 143.3H431c-.2-58.7-.5-109.3-13-145.5-13.4-39.4-37.9-64.3-94-75.4l-19.9-3.7 12.9-15.7c17.7-21.9 28.8-52.6 28.8-87.5 0-33.9-10.3-64.9-27.2-86.3-16.8-21.7-39.3-33.6-63.6-33.4z" fill="#000000" fill-opacity="1" transform="translate(51.2, 51.2) scale(0.8, 0.8) rotate(0, 256, 256) skewX(0) skewY(0)"></path></g><g class="" transform="translate(183,192)" style=""><g transform="translate(16, 16) scale(0.5, 0.5) rotate(0, 128, 128)"><circle cx="128" cy="128" r="128" fill="#000" fill-opacity="1"></circle><circle stroke="#ff8594" stroke-opacity="1" fill="#000" fill-opacity="1" stroke-width="18" cx="128" cy="128" r="101"></circle><path fill="#ff8594" fill-opacity="1" d="M101.265 58.881h53.377l-28.835 51.29 53.1 5.232-78.643 81.716 24.95-62.497-48.121-5.661z"></path></g></g></svg>